# xmcd CD database file
#
# Track frame offsets:
#	150
#	10494
#	20180
#	33891
#	44306
#	55660
#	66034
#	77492
#	90458
#	102759
#
# Disc length: 1529 seconds
#
# Revision: 0
# Processed by: cddbd v1.5.2PL0 Copyright (c) Steve Scherf et al.
# Submitted via: CDex 1.77
#
DISCID=7005f70a
DTITLE=Various Artist - Country Classics Hits of the 1964's
DYEAR=1999
DGENRE=Country
TTITLE0=Connie Smith - Once a Day
TTITLE1=Porter Wagoner - Sorrow On The Rocks
TTITLE2=Billy Walker - Cross The Brazos At Waco
TTITLE3=Norma Jean - Go Cat Go
TTITLE4=Charlie Louvin - I Don't Love You Anymore
TTITLE5=Warner Mack - Sittin' In An All Nite Cafe
TTITLE6=Killy Wells - Password
TTITLE7=Billy Edd Wheeler - Ode To The Little Brown Shack Out Black
TTITLE8=Stonewall Jackson - Don't Be Angry
TTITLE9=Dave Dudley - Mad
EXTD=YEAR: 1999
EXTT0=
EXTT1=
EXTT2=
EXTT3=
EXTT4=
EXTT5=
EXTT6=
EXTT7=
EXTT8=
EXTT9=
PLAYORDER=
